<svg width="17" height="24" viewBox="0 0 17 24" fill="none" xmlns="http://www.w3.org/2000/svg">
<path d="M14.875 7.75H2.125C1.83458 7.75 1.59375 7.41 1.59375 7C1.59375 6.59 1.83458 6.25 2.125 6.25H14.875C15.1654 6.25 15.4062 6.59 15.4062 7C15.4062 7.41 15.1654 7.75 14.875 7.75Z" fill="#292D32"/>
<path d="M14.875 12.75H2.125C1.83458 12.75 1.59375 12.41 1.59375 12C1.59375 11.59 1.83458 11.25 2.125 11.25H14.875C15.1654 11.25 15.4062 11.59 15.4062 12C15.4062 12.41 15.1654 12.75 14.875 12.75Z" fill="#292D32"/>
<path d="M14.875 17.75H2.125C1.83458 17.75 1.59375 17.41 1.59375 17C1.59375 16.59 1.83458 16.25 2.125 16.25H14.875C15.1654 16.25 15.4062 16.59 15.4062 17C15.4062 17.41 15.1654 17.75 14.875 17.75Z" fill="#292D32"/>
</svg>
